PathFileType	4	(X/Y/Z)	s03c0103.trc
DataRate	CameraRate	NumFrames	NumMarkers	Units	OrigDataRate	OrigDataStartFrame	OrigNumFrames
200	200	4	50	mm	200	1500	2000
Frame#	Time	racr			lacr			c7			jug			rlel			rdr			llel			ldr			s2			lic			ric			lasi			rasi			rpsi			lpsi			rgt			lgt			rth1			rth2			rth3			rth4			rlfc			rmfc			rsh1			rsh2			rsh3			rsh4			rlmal			rcal			rtoe			rmt5			rmt1			lth1			lth2			lth4			lth3			llfc			lmfc			lsh1			lsh2			lsh3			lsh4			llmal			lcal			ltoe			lmt1			lmt5			SBIKE			LBIKE			RBIKE			
		X1	Y1	Z1	X2	Y2	Z2	X3	Y3	Z3	X4	Y4	Z4	X5	Y5	Z5	X6	Y6	Z6	X7	Y7	Z7	X8	Y8	Z8	X9	Y9	Z9	X10	Y10	Z10	X11	Y11	Z11	X12	Y12	Z12	X13	Y13	Z13	X14	Y14	Z14	X15	Y15	Z15	X16	Y16	Z16	X17	Y17	Z17	X18	Y18	Z18	X19	Y19	Z19	X20	Y20	Z20	X21	Y21	Z21	X22	Y22	Z22	X23	Y23	Z23	X24	Y24	Z24	X25	Y25	Z25	X26	Y26	Z26	X27	Y27	Z27	X28	Y28	Z28	X29	Y29	Z29	X30	Y30	Z30	X31	Y31	Z31	X32	Y32	Z32	X33	Y33	Z33	X34	Y34	Z34	X35	Y35	Z35	X36	Y36	Z36	X37	Y37	Z37	X38	Y38	Z38	X39	Y39	Z39	X40	Y40	Z40	X41	Y41	Z41	X42	Y42	Z42	X43	Y43	Z43	X44	Y44	Z44	X45	Y45	Z45	X46	Y46	Z46	X47	Y47	Z47	X48	Y48	Z48	X49	Y49	Z49	X50	Y50	Z50	
1500	7.5000	423.947428	1391.242204	-59.609581	476.951002	1397.087964	-362.854781	391.262591	1485.724076	-215.328533	386.926459	1309.722980	-224.154036	481.142526	1132.296788	26.400246	715.379969	957.350963	-45.541539	548.692503	1156.608270	-479.607345	740.728100	923.311711	-430.414262	-122.815303	1208.608893	-291.977106	67.391242	1232.466016	-453.431084	8.821175	1262.883073	-92.825954	79.509813	1162.854569	-413.015700	50.452516	1190.842686	-131.003274	-104.716037	1266.914694	-253.696680	-89.574487	1258.685296	-332.394008	-10.998523	1191.492696	-80.137122	-4.397275	1101.963754	-470.467138	124.726662	1121.102688	-52.803872	213.789523	1123.140356	-52.334193	290.664910	1084.312305	-48.839952	221.791684	1154.669616	-71.667473	410.755316	1027.153604	-64.537164	424.698913	1005.298258	-196.843492	343.484749	878.530825	-46.331621	321.979095	792.640557	-57.073431	260.195956	729.527323	-58.028578	349.852078	779.008930	-79.274453	192.155653	610.056560	-74.513372	120.242023	576.506659	-113.683989	419.572262	495.815075	-124.608844	302.580208	509.092405	-51.242248	327.371941	518.430456	-163.915278	75.075236	967.887790	-496.727797	139.815183	911.148180	-507.622718	170.802591	931.496464	-503.897739	170.149945	827.076123	-500.042539	256.708856	725.127600	-484.261035	271.781849	718.340120	-361.101689	187.651831	567.126903	-489.589693	187.047769	484.392056	-467.177501	141.532109	408.286456	-450.919948	221.553815	478.603220	-449.047341	102.168337	291.842701	-420.690663	35.676160	278.256091	-369.518576	312.049375	141.973769	-361.083527	224.716736	177.847542	-319.557928	193.700375	164.862377	-436.332172	-221.067124	943.813187	-241.157038	-14.281036	80.566897	-437.812616	-14.843881	81.876739	-37.319030	
1501	7.5050	423.491286	1391.302987	-58.854630	477.185393	1397.169880	-361.884146	391.170282	1485.736375	-214.527248	386.885222	1309.736753	-223.384415	480.718751	1132.362086	26.924880	715.224923	957.554475	-45.448301	548.302953	1156.619272	-479.161505	740.765050	923.527302	-430.453316	-123.009330	1209.027691	-291.651815	67.281263	1232.851210	-453.373426	8.136118	1263.428663	-92.653792	79.339795	1163.180142	-412.948328	50.570293	1190.798683	-130.518021	-104.635517	1266.925564	-253.498729	-90.164659	1259.247042	-331.805154	-11.669847	1190.494606	-80.093652	-4.301558	1102.821697	-470.413421	124.179959	1118.854593	-52.448745	213.268633	1120.175734	-51.778458	289.425132	1080.617925	-49.223845	221.575198	1151.840892	-70.712568	410.314651	1022.468894	-65.459922	423.508078	1001.346956	-196.458263	344.389556	872.899104	-45.855933	324.435245	786.613756	-56.195098	263.548153	722.664970	-57.196917	352.272877	773.457953	-78.659858	197.731899	601.870053	-73.525009	126.217579	566.096501	-112.246135	427.991009	495.916397	-124.530302	310.962647	504.561073	-50.217871	334.857811	515.225080	-163.297987	76.093139	970.014511	-497.112432	141.377983	913.958965	-508.190615	172.130327	934.576916	-504.513066	172.485454	830.150101	-501.315826	259.373463	728.299154	-486.169715	275.143179	721.461984	-363.060607	188.017191	571.109291	-490.703575	185.971202	488.486419	-467.785296	139.018957	413.337883	-451.235554	220.255761	482.293738	-449.598376	97.570810	298.402858	-420.397993	30.710379	287.101507	-369.446359	302.540559	141.974645	-360.762205	216.442257	180.403915	-319.298124	185.196055	168.896064	-436.104759	-221.089219	943.801568	-241.160104	-14.270590	80.574879	-437.805162	-14.837888	81.875757	-37.303420	
1502	7.5100	423.300648	1391.330553	-58.364538	477.228499	1397.304135	-361.328338	391.111042	1485.773325	-214.006326	386.857416	1309.776083	-222.904609	480.550196	1132.408405	26.866524	715.018386	957.679152	-45.426128	548.001551	1156.613086	-478.663095	740.328887	923.212505	-430.228457	-123.179763	1209.187002	-291.305426	67.070169	1233.291136	-453.227670	7.684127	1263.569692	-92.352838	79.152794	1163.570162	-412.881927	50.756511	1190.676897	-129.937280	-104.618423	1266.823840	-253.109494	-90.311528	1259.365475	-331.538943	-12.141155	1189.133897	-79.895209	-4.238308	1103.710793	-470.339822	123.637290	1116.053820	-51.905300	212.737457	1116.486718	-51.029238	288.878381	1076.201449	-48.069678	221.445216	1148.274346	-69.465949	409.302202	1017.735178	-66.299848	422.227303	996.422983	-195.803917	345.049967	866.289809	-45.130187	326.502695	779.723379	-55.405579	266.577885	714.765394	-56.413324	354.448388	766.939261	-77.938686	203.166079	592.675114	-72.521397	132.308912	554.608982	-110.935466	436.100104	495.187280	-124.393548	319.118283	499.130537	-49.152940	342.258688	510.963349	-162.518952	77.215520	972.321023	-497.269532	143.004333	916.915116	-508.555629	173.497471	937.857090	-505.068840	174.922633	833.411275	-502.449282	262.168968	731.692846	-488.205626	278.731606	724.857556	-364.991403	188.601144	575.390741	-491.777805	185.027081	492.907334	-468.378889	136.705012	418.683447	-451.517333	219.122177	486.252917	-450.048795	93.115246	305.255057	-420.341062	25.840571	296.059242	-368.998201	293.109531	142.657956	-360.537333	208.429773	183.797259	-319.174439	176.854035	173.518625	-435.831177	-221.088405	943.788728	-241.146667	-14.268589	80.593809	-437.806979	-14.832803	81.872594	-37.318416	
1503	7.5150	423.413506	1391.365943	-58.135850	477.168108	1397.482850	-361.097644	391.100656	1485.857099	-213.689562	386.914362	1309.863293	-222.667627	480.432353	1132.413394	26.995825	714.806019	957.703472	-45.414038	547.605817	1156.586431	-478.110185	740.171580	923.139867	-430.081392	-123.393164	1209.279000	-290.785272	68.001720	1234.810717	-457.625704	7.362541	1263.275465	-91.864823	78.738953	1164.101529	-412.636046	51.009093	1190.479014	-129.264400	-104.721608	1266.652713	-252.614303	-90.237922	1259.718349	-331.082950	-12.599475	1187.626790	-79.553730	-4.227090	1104.591680	-470.204659	123.138118	1112.694353	-51.194537	212.212810	1112.050681	-50.026926	287.837583	1070.980447	-47.337408	221.350208	1144.075516	-67.950742	408.037323	1011.548984	-65.935019	420.924546	990.568825	-194.887925	345.554553	858.650358	-44.125757	328.413014	771.769819	-54.494559	269.465155	705.903035	-55.566012	356.810817	759.487997	-76.759537	208.490811	582.621717	-71.714945	138.332537	542.256442	-109.768757	443.775002	493.771762	-123.952608	327.099701	493.000372	-48.163622	349.708624	505.895777	-161.977467	78.381989	974.728327	-497.259097	144.704751	920.009684	-508.864604	174.933472	941.206385	-505.563133	177.503551	836.827750	-503.373550	265.212115	735.262497	-490.119124	282.349932	728.416775	-366.813745	189.362846	579.821193	-492.833613	184.391131	498.345344	-470.118105	134.495675	424.364759	-451.730043	217.955332	490.518821	-450.097590	88.747791	312.490790	-419.919890	21.216720	305.335611	-368.517178	282.994156	142.295746	-357.728428	200.474020	187.615810	-318.988390	168.694865	178.686950	-435.563313	-221.096007	943.765294	-241.096895	-14.269777	80.572285	-437.808237	-14.837344	81.857212	-37.309302	
